<?xml version="1.0" ?><svg style="enable-background:new 0 0 512 512;" version="1.1" viewBox="0 0 512 512" xml:space="preserve" xmlns="http://www.w3.org/2000/svg" xmlns:xlink="http://www.w3.org/1999/xlink"><g id="_x32__x2C__Bacteria_x2C__bug_x2C__corona_x2C__corona_virus"><g id="XMLID_4175_"><g id="XMLID_4176_"><path d="M157.24,136.25c23.13-19.5,52.1-32.28,83.92-35.34V81.37     c-8.87-5.13-14.84-14.71-14.84-25.69C226.32,39.29,239.61,26,256,26s29.68,13.29,29.68,29.68c0,10.98-5.97,20.56-14.84,25.69     v19.54c31.82,3.06,60.79,15.84,83.93,35.34l14.22-14.22c-2.65-9.9-0.09-20.9,7.67-28.66c11.59-11.59,30.38-11.59,41.97,0     c11.59,11.59,11.59,30.38,0,41.97c-7.76,7.76-18.76,10.32-28.66,7.67l-14.46,14.46c18.73,23.28,30.81,52.14,33.33,83.69h21.78     c5.14-8.87,14.72-14.84,25.7-14.84c16.39,0,29.68,13.29,29.68,29.68c0,16.39-13.29,29.68-29.68,29.68     c-10.98,0-20.56-5.97-25.7-14.84h-22.27c-3.46,30.851-16.09,58.91-35.08,81.44v0.01l11.16,11.15     c13.12-5.06,28.57-2.31,39.15,8.279c14.32,14.32,14.32,37.54,0,51.86c-14.32,14.32-37.54,14.32-51.86,0     c-10.59-10.58-13.34-26.03-8.28-39.15l-11.39-11.39c-22.66,18.24-50.62,30.17-81.21,33.1v24.48c8.87,5.14,14.84,14.72,14.84,25.7     c0,16.39-13.29,29.68-29.68,29.68s-29.68-13.29-29.68-29.68c0-10.98,5.97-20.561,14.84-25.7v-24.48     c-30.59-2.93-58.55-14.859-81.21-33.1l-16.94,16.93c2.65,9.9,0.09,20.9-7.67,28.66c-11.59,11.59-30.38,11.59-41.97,0     c-11.59-11.59-11.59-30.38,0-41.97c7.76-7.76,18.76-10.32,28.66-7.67l16.7-16.7c-18.99-22.53-31.62-50.6-35.08-81.45H81.37     c-5.13,8.87-14.71,14.84-25.69,14.84C39.29,285.68,26,272.39,26,256c0-16.39,13.29-29.68,29.68-29.68     c10.98,0,20.56,5.97,25.69,14.84h21.79c2.52-31.55,14.6-60.41,33.33-83.68l-17.67-17.67c-13.12,5.06-28.57,2.31-39.15-8.28     c-14.32-14.32-14.32-37.54,0-51.86c14.32-14.32,37.54-14.32,51.86,0c10.59,10.58,13.34,26.03,8.28,39.15L157.24,136.25z" id="XMLID_4248_" style="fill:#D94556;"/><path d="M151,446c11.05,0,20,8.95,20,20s-8.95,20-20,20s-20-8.95-20-20S139.95,446,151,446     z" id="XMLID_48_" style="fill:#07CC66;"/><path d="M451,46c8.28,0,15,6.72,15,15s-6.72,15-15,15c-8.28,0-15-6.72-15-15     S442.72,46,451,46z" id="XMLID_47_" style="fill:#07CC66;"/><path d="M336,206c8.28,0,15,6.72,15,15s-6.72,15-15,15c-8.28,0-15-6.72-15-15     S327.72,206,336,206z" id="XMLID_46_" style="fill:#FFD400;"/><path d="M276,331c8.28,0,15,6.72,15,15s-6.72,15-15,15c-8.28,0-15-6.72-15-15     S267.72,331,276,331z" id="XMLID_45_" style="fill:#FFD400;"/><path d="M196,211c13.81,0,25,11.19,25,25s-11.19,25-25,25s-25-11.19-25-25     S182.19,211,196,211z" id="XMLID_44_" style="fill:#FFD400;"/><circle cx="468.5" cy="158.5" id="XMLID_43_" r="7.5" style="fill:#5CBEFF;"/><circle cx="448.5" cy="328.5" id="XMLID_42_" r="7.5" style="fill:#5CBEFF;"/><circle cx="353.5" cy="53.5" id="XMLID_41_" r="7.5" style="fill:#5CBEFF;"/><circle cx="338.5" cy="463.5" id="XMLID_40_" r="7.5" style="fill:#5CBEFF;"/><path d="M271,216c8.28,0,15,6.72,15,15s-6.72,15-15,15c-8.28,0-15-6.72-15-15     S262.72,216,271,216z" id="XMLID_39_" style="fill:#FAA71A;"/><path d="M141,256c5.52,0,10,4.48,10,10s-4.48,10-10,10s-10-4.48-10-10S135.48,256,141,256z     " id="XMLID_38_" style="fill:#FAA71A;"/><circle cx="133.5" cy="38.5" id="XMLID_37_" r="7.5" style="fill:#5CBEFF;"/><circle cx="63.5" cy="168.5" id="XMLID_36_" r="7.5" style="fill:#5CBEFF;"/><circle cx="43.5" cy="378.5" id="XMLID_35_" r="7.5" style="fill:#5CBEFF;"/><path d="M251,181.39c-3.779,0-7.251-1.732-9.524-4.753l-2.77-3.702     c-0.548-0.732-1.292-0.786-1.688-0.748c-0.399,0.036-1.13,0.22-1.548,1.053c-1.237,2.47-4.242,3.469-6.71,2.23     c-2.469-1.237-3.467-4.241-2.23-6.71c1.864-3.72,5.451-6.163,9.596-6.534c4.135-0.372,8.095,1.392,10.585,4.715l2.763,3.693     c0.493,0.656,1.168,0.755,1.526,0.755s1.033-0.1,1.535-0.767l2.751-3.678c2.493-3.327,6.45-5.088,10.588-4.718     c4.145,0.371,7.732,2.814,9.596,6.534c0.48,0.956,1.37,1.059,1.73,1.059c0.428,0,1.038-0.133,1.515-0.767l1.565-2.101     c2.499-3.334,6.46-5.095,10.593-4.726c4.145,0.371,7.732,2.814,9.596,6.534c0.48,0.956,1.37,1.059,1.73,1.059     c0.428,0,1.038-0.133,1.515-0.767l1.565-2.101c2.499-3.334,6.459-5.095,10.593-4.726c4.145,0.371,7.732,2.814,9.596,6.534     c0.48,0.956,1.37,1.059,1.73,1.059c0.428,0,1.038-0.133,1.515-0.767c1.661-2.207,4.796-2.648,7.001-0.988     c2.207,1.661,2.648,4.795,0.988,7.001c-2.273,3.021-5.738,4.753-9.504,4.753c-4.544,0-8.633-2.52-10.669-6.577     c-0.419-0.837-1.15-1.02-1.549-1.056c-0.396-0.036-1.139,0.015-1.691,0.752l-1.572,2.109c-2.288,3.04-5.752,4.772-9.519,4.772     c-4.544,0-8.633-2.52-10.669-6.577c-0.419-0.837-1.15-1.02-1.549-1.056c-0.396-0.036-1.139,0.015-1.691,0.752l-1.572,2.109     c-2.288,3.04-5.752,4.772-9.519,4.772c-4.544,0-8.633-2.52-10.669-6.577c-0.419-0.837-1.15-1.02-1.549-1.056     c-0.396-0.036-1.139,0.015-1.691,0.752l-2.757,3.686C258.251,179.658,254.779,181.39,251,181.39z" id="XMLID_34_" style="fill:#FAA71A;"/><path d="M211.034,323.88c-2.521,0-4.689-1.901-4.965-4.465     c-0.445-4.136,1.25-8.128,4.533-10.681c3.283-2.552,7.569-3.21,11.462-1.76l4.322,1.609c0.775,0.288,1.396,0.006,1.697-0.19     c0.299-0.192,0.811-0.639,0.87-1.463l0.33-4.599c0.3-4.148,2.68-7.772,6.366-9.696c3.687-1.926,8.022-1.809,11.595,0.315     c0.311,0.185,0.638,0.279,0.966,0.279c0.864,0,1.828-0.626,1.913-1.786l0.19-2.625c0.309-4.153,2.691-7.774,6.376-9.695     c3.683-1.921,8.017-1.804,11.591,0.316c0.318,0.188,0.632,0.28,0.96,0.28c0.869,0,1.838-0.626,1.923-1.786l0.19-2.624     c0.299-4.148,2.677-7.775,6.36-9.701c3.684-1.926,8.018-1.81,11.596,0.311c0.315,0.187,0.642,0.281,0.97,0.281     c0.864,0,1.829-0.626,1.914-1.786c0.203-2.753,2.601-4.831,5.353-4.62c2.754,0.202,4.823,2.599,4.621,5.353     c-0.455,6.198-5.676,11.054-11.887,11.054c-2.117,0-4.216-0.581-6.069-1.679c-0.798-0.475-1.51-0.236-1.863-0.052     c-0.352,0.185-0.953,0.632-1.021,1.56l-0.19,2.631c-0.455,6.204-5.681,11.06-11.896,11.06c-2.112,0-4.208-0.58-6.06-1.679     c-0.799-0.475-1.514-0.235-1.867-0.051c-0.354,0.185-0.958,0.633-1.027,1.56l-0.189,2.62     c-0.454,6.204-5.675,11.061-11.887,11.061c-2.118,0-4.217-0.581-6.07-1.68c-0.797-0.474-1.509-0.234-1.862-0.05     c-0.353,0.184-0.954,0.63-1.021,1.55l-0.33,4.597c-0.271,3.771-2.25,7.107-5.43,9.155c-3.183,2.05-7.044,2.469-10.594,1.155     l-4.329-1.612c-0.863-0.323-1.521,0.039-1.835,0.283c-0.314,0.245-0.827,0.793-0.728,1.716c0.295,2.746-1.691,5.211-4.436,5.507     C211.393,323.871,211.212,323.88,211.034,323.88z" id="XMLID_33_" style="fill:#FAA71A;"/></g></g></g><g id="Layer_1"/></svg>